<svg id="Capa_1_copia_4" data-name="Capa 1 copia 4" xmlns="http://www.w3.org/2000/svg" viewBox="0 0 27.8 27.8"><defs><style>.cls-1{fill:#fff;}</style></defs><path class="cls-1" d="M19.89,27.8h-12A7.92,7.92,0,0,1,0,19.89v-12A7.92,7.92,0,0,1,7.91,0h12A7.92,7.92,0,0,1,27.8,7.91v12a7.92,7.92,0,0,1-7.91,7.91M7.91,2.38A5.54,5.54,0,0,0,2.38,7.91v12a5.54,5.54,0,0,0,5.53,5.53h12a5.54,5.54,0,0,0,5.53-5.53v-12a5.54,5.54,0,0,0-5.53-5.53Z"/><path class="cls-1" d="M13.9,21A7.12,7.12,0,1,1,21,13.9,7.13,7.13,0,0,1,13.9,21m0-11.85a4.74,4.74,0,1,0,4.74,4.73A4.74,4.74,0,0,0,13.9,9.17"/><path class="cls-1" d="M23,6.38a1.71,1.71,0,1,1-1.71-1.72A1.71,1.71,0,0,1,23,6.38"/></svg>