<svg id="Capa_1_copia_4" data-name="Capa 1 copia 4" xmlns="http://www.w3.org/2000/svg" viewBox="0 0 24.88 25.06"><defs><style>.cls-1{fill:#fff;fill-rule:evenodd;}</style></defs><path class="cls-1" d="M13.73,10.28c0-1,.24-2-.92-2-1,0-2,0-3,0-1.41,0-1.36.31-1.36,1.62v9c0,6.87-.65,6.17,2.74,6.17.83,0,2.2.24,2.49-.48.13-.34.06-5.15.06-5.94,0-1.86-.14-3.88.92-5.11a2.67,2.67,0,0,1,4.13.07c.88,1.24.66,3.58.66,5.29v3c0,3.51-.38,3.17,2.77,3.17.82,0,2.19.24,2.55-.42a56.49,56.49,0,0,0,.1-5.94c0-3.83.05-7.71-2.41-9.58A7.34,7.34,0,0,0,15.3,8.8a4.84,4.84,0,0,0-1.36,1.26l-.09.11a.63.63,0,0,1-.12.11"/><path class="cls-1" d="M1.42,8.29C.56,8.54.78,9.47.78,10.44v11C.78,24.92.36,25,2.72,25c3.47,0,3.34.38,3.34-2.16v-11c0-3.51.42-3.57-2-3.57a23.19,23.19,0,0,0-2.67,0"/><path class="cls-1" d="M2.73.08a3.38,3.38,0,0,0-2.65,4A3.39,3.39,0,0,0,4.17,6.74,3.41,3.41,0,0,0,2.73.08"/></svg>